<?xml version="1.0" encoding="UTF-8"?>
<svg id="logo" xmlns="http://www.w3.org/2000/svg" version="1.1" viewBox="0 0 4763.48 1793.37">
  <!-- Generator: Adobe Illustrator 29.2.1, SVG Export Plug-In . SVG Version: 2.1.0 Build 116)  -->
  <defs>
    <style>
      .st0 {
        fill: #842952;
      }
    </style>
  </defs>
  <path class="st0" d="M2012.11,643.24c-42.97,0-80.14,32.51-81.3,72v10.45c-46.46-72-127.75-87.1-162.6-87.1-138.2,0-263.63,101.04-263.63,281.05s125.43,282.21,263.63,282.21c61.55,0,127.75-30.2,162.6-87.1v10.46c1.16,39.49,38.32,72,81.3,72s81.3-31.36,81.3-72v-409.97c0-40.65-37.16-72-81.3-72ZM1799.58,1057.84c-81.3,0-127.75-65.03-127.75-137.04s46.45-137.04,127.75-137.04c73.17,0,132.4,65.04,132.4,137.04s-59.23,137.04-132.4,137.04Z"/>
  <path class="st0" d="M764.8,464.38c-18.58-48.78-55.74-78.97-114.97-78.97h-6.97c-59.23,0-96.39,30.2-114.97,78.97l-231.12,622.5c-13.94,39.49,9.29,91.75,51.1,105.68,42.97,13.94,91.75-4.64,106.85-44.13l54.59-146.33h274.09l54.59,146.33c15.1,39.49,63.88,58.07,106.85,44.13,41.81-13.93,65.03-66.2,51.1-105.68l-231.12-622.5ZM565.04,854.61l81.3-278.73,81.3,278.73h-162.59Z"/>
  <path class="st0" d="M1287.41,795.37c29.03,0,56.91,8.13,80.14,20.91,29.03,16.26,76.65,23.23,105.68-5.8,32.52-32.52,27.87-91.75-10.45-118.46-48.78-34.84-110.33-53.42-175.37-53.42-155.62,0-297.31,109.17-297.31,279.89v3.48c0,158.24,121.74,263.52,263.46,278.08,4.76,3.73,8.86,7.56,11.02,11.12,11.35,13.39,13.95,35.96-1.56,46.8-10.55,7.27-23.25,5.97-36.24-1.27l-13.5-7.98c-17.73-10.41-40.79-9.34-57.7,4.38-21.76,17.67-25.07,49.64-7.41,71.39,60.85,75.59,186.43,60.08,221.25-32.31,21.48-57.01-7.39-111.32-53.08-138.92,23.12,6.26,44.42,18.96,60.9,36,31.09-8.99,60.08-22.63,85.53-40.81,38.33-26.71,42.97-85.94,10.45-118.46-29.03-29.04-76.65-22.07-105.68-5.8-23.23,12.78-51.1,20.91-80.14,20.91-69.68,0-132.4-47.62-132.4-123.11v-3.48c0-75.5,62.71-123.11,132.4-123.11Z"/>
  <path class="st0" d="M2242.06,643.24c-42.98,0-80.14,32.51-81.3,72v409.97c1.16,39.49,38.33,72,81.3,72s81.29-31.36,81.29-72v-409.97c0-40.65-37.16-72-81.29-72Z"/>
  <path class="st0" d="M3471.92,638.59c-157.95,0-284.54,109.17-284.54,279.89s126.59,283.37,284.54,283.37,285.7-112.65,285.7-283.37-127.75-279.89-285.7-279.89ZM3471.92,1045.08c-66.21,0-121.95-52.26-121.95-126.59s55.74-123.11,121.95-123.11,123.11,49.94,123.11,123.11-55.75,126.59-123.11,126.59Z"/>
  <path class="st0" d="M4507.85,646.71c-51.1-13.93-92.91,10.46-102.2,46.46l-84.79,278.73-77.81-263.63c-12.78-44.14-40.65-65.04-81.29-65.04h-9.29c-40.65,0-69.68,20.9-82.46,65.04l-77.81,263.63-84.78-278.73c-9.29-36-51.1-60.39-102.21-46.46-39.49,10.46-61.55,59.23-47.62,96.39l141.69,391.39c15.09,39.49,45.29,62.71,84.78,62.71h6.97c39.49,0,68.52-23.23,81.29-62.71l84.79-288.02,88.26,288.02c11.62,39.49,41.81,62.71,81.3,62.71h6.96c39.49,0,70.84-23.23,84.79-62.71l137.04-391.39c13.93-37.16-8.13-85.94-47.62-96.39Z"/>
  <path class="st0" d="M2883.13,391.21h-368.16c-42.97,0-66.2,32.52-67.36,72v283.16c33.96-15.62,80.75-25.59,124.21-23.94-85.96,11.13-177.93,70.94-157,109.2,5.65,10.32,17.05,11.65,32.79,9.85v276.75c0,41.81,40.65,78.97,84.78,78.97,46.46,0,84.78-36,84.78-78.97v-242.57c-8.66-6.35-18.11-13.39-28.58-21.25-13.19-9.91-26.53-17.05-39.72-22.26,19.14,1.92,39.47,7.04,60.46,17.69,92.06,46.74,114.03,54.76,169.16,54.22,111.13-1.1,171.14-113.47,127.15-158.21-21.07-21.43-33.09,17.96-125.85,9.28-70.39-6.59-92.11-25.25-161.44-33.42-.39-.04-.79-.06-1.18-.1v-180.58h265.96c37.17-1.16,69.68-36,69.68-74.33,0-41.81-31.36-75.49-69.68-75.49Z"/>
  <path class="st0" d="M3063.12,348.24c-42.97,0-80.14,32.52-81.3,72.01v704.96c1.16,39.49,38.33,72,81.3,72s81.29-31.36,81.29-72V420.25c0-40.65-37.16-72.01-81.29-72.01Z"/>
  <path class="st0" d="M2222.4,390.2c-16.81,49.97-38.95,95.38-59.32,119.15-34.98,40.82-4.94,67.46,43.28,58.02,53.51-10.47,166.77-85.87,161.64-152.62-5.01-65.25-120.82-98.19-145.59-24.55Z"/>
</svg>